<?xml version="1.0" encoding="utf-8"?>
<!-- Generator: Adobe Illustrator 25.2.1, SVG Export Plug-In . SVG Version: 6.00 Build 0)  -->
<svg version="1.1" id="Layer_1" xmlns="http://www.w3.org/2000/svg" xmlns:xlink="http://www.w3.org/1999/xlink" x="0px" y="0px"
	 width="1000px" height="1000px" viewBox="0 0 1000 1000" style="enable-background:new 0 0 1000 1000;" xml:space="preserve">
<g>
	<path d="M919.7,436c6.4,0,11.9,1.4,16.6,4.3c4.6,2.8,6.9,6.5,6.9,10.9v30.3c0,4.4-2.1,8-6.2,10.9c-4.1,2.8-9,4.3-14.5,4.3
		c-16.6,1.3-36.8,5.8-60.7,13.7c-23.9,7.9-49.2,17.2-75.9,27.9c-26.7,10.7-45.1,17.7-55.2,20.8c-61.7,18.9-108.6,28.4-140.8,28.4
		c-39.6,0-70-7.9-91.1-23.7c-23-17.7-32.2-44.2-27.6-79.5c-70.9,38.5-168,100.4-291.3,185.6c-9.2,5.7-19.8,8.5-31.8,8.5
		c-17.5,0-29.9-4.7-37.3-14.2c-7.4-9.5-8.8-18.6-4.1-27.5l135.3-232.9c6.4-8.8,3.9-16.6-7.6-23.2c-11.5-6.6-23.7-7.4-36.6-2.4
		l-80.1,36.9c-5.5,2.5-11.3,3.3-17.3,2.4c-6-0.9-10.4-3.3-13.1-7.1l-24.9-25.6c-7.4-8.2-5-15.1,6.9-20.8l75.9-35
		c25.8-10.7,52-15.3,78.7-13.7c26.7,1.6,48.8,7.9,66.3,18.9c17.5,11.1,30.6,24.6,39.3,40.7c8.7,16.1,7.1,33.3-4.8,51.6l-58,98.5
		c69-44.8,120.6-75.7,154.6-92.8c34-17,60.7-25.9,80.1-26.5c17.5-0.6,31.1,2.1,40.7,8c9.7,6,15.4,14.2,17.3,24.6
		c1.8,10.4,2.8,18.3,2.8,23.7c0,5.4-0.5,10.6-1.4,15.6c-3.7,17.7-3.5,30.3,0.7,37.9c4.1,7.6,13.6,11.4,28.3,11.4
		c20.2,0,55.2-7.6,104.9-22.7c9.2-3.2,29.7-10.9,61.4-23.2c31.8-12.3,61.7-22.6,89.7-30.8C873.9,442,898.5,437.3,919.7,436z"/>
</g>
<g>
</g>
<g>
</g>
<g>
</g>
<g>
</g>
<g>
</g>
<g>
</g>
</svg>
