<?xml version="1.0" standalone="no"?>
<!DOCTYPE svg PUBLIC "-//W3C//DTD SVG 20010904//EN"
 "http://www.w3.org/TR/2001/REC-SVG-20010904/DTD/svg10.dtd">
<svg version="1.0" xmlns="http://www.w3.org/2000/svg"
 width="700.000000pt" height="700.000000pt" viewBox="0 0 700.000000 700.000000"
 preserveAspectRatio="xMidYMid meet">
<metadata>
Created by potrace 1.14, written by Peter Selinger 2001-2017
</metadata>
<g transform="translate(0.000000,700.000000) scale(0.100000,-0.100000)"
fill="#000000" stroke="none">
<path d="M1140 5345 c-8 -2 -51 -9 -95 -16 -139 -21 -274 -75 -495 -199 -52
-29 -120 -66 -150 -83 -30 -17 -68 -38 -85 -47 -251 -139 -279 -159 -290 -210
-9 -40 13 -80 91 -176 36 -43 71 -86 77 -94 106 -133 120 -142 210 -141 45 1
69 13 442 220 159 89 306 166 325 171 103 29 233 -12 291 -93 45 -61 40 -96
-32 -245 -34 -70 -98 -201 -142 -292 -43 -91 -113 -235 -155 -320 -41 -85
-103 -213 -137 -285 -34 -71 -103 -213 -153 -315 -49 -102 -114 -237 -145
-300 -30 -63 -97 -203 -149 -310 -52 -107 -110 -226 -129 -265 -43 -90 -45
-163 -8 -245 53 -114 146 -171 289 -176 92 -3 159 10 225 44 32 16 196 147
390 310 11 9 79 64 150 121 72 58 132 108 135 111 3 3 34 28 70 55 36 28 70
55 76 60 6 6 28 24 49 40 21 17 72 57 114 90 443 352 1116 847 1321 972 l36
22 -6 -52 c-7 -62 -5 -154 4 -240 21 -192 104 -357 235 -470 99 -85 310 -174
455 -192 23 -3 59 -7 81 -10 246 -29 595 32 1045 183 236 80 326 116 595 244
585 278 916 402 1128 423 81 7 134 37 156 85 15 33 17 67 16 213 -1 164 -3
175 -24 204 -66 88 -216 88 -541 -3 -186 -51 -549 -191 -808 -310 -41 -19 -75
-34 -77 -34 -1 0 -56 -25 -121 -56 -327 -155 -591 -256 -864 -328 -232 -61
-401 -72 -481 -31 -45 24 -77 61 -92 110 -14 48 -14 240 1 305 15 63 7 330
-12 415 -61 267 -345 360 -701 228 -180 -66 -428 -211 -745 -432 -124 -86
-178 -125 -400 -290 -59 -43 -368 -279 -438 -334 -7 -6 14 43 46 109 33 65
109 220 170 344 60 124 145 297 189 385 43 88 87 185 97 216 35 113 25 256
-26 364 -87 184 -260 365 -434 453 -31 16 -151 60 -184 67 -6 2 -62 12 -105
21 -34 6 -262 13 -285 9z"/>
</g>
</svg>
